<?xml version="1.0" encoding="UTF-8" standalone="no"?><!DOCTYPE svg PUBLIC "-//W3C//DTD SVG 1.1//EN" "http://www.w3.org/Graphics/SVG/1.1/DTD/svg11.dtd"><svg width="1104" height="270" viewBox="0 0 1104 270" version="1.1" xmlns="http://www.w3.org/2000/svg" xmlns:xlink="http://www.w3.org/1999/xlink" xml:space="preserve" xmlns:serif="http://www.serif.com/" style="fill-rule:evenodd;clip-rule:evenodd;stroke-linejoin:round;stroke-miterlimit:2;"><path d="M144.695,0l0,21.561l103.712,0l0,226.846l-103.712,0l0,21.561l125.273,0l0,-269.968" style="fill:#631934;fill-rule:nonzero;"/><path d="M0,0l0,269.968l125.178,0l0,-21.561l-103.617,0l0,-226.846l103.617,0l0,-21.561" style="fill:#631934;fill-rule:nonzero;"/><path d="M210.49,108.099c-2.259,-11.049 -5.777,-11.302 -15.444,-11.302l-21.601,0l0,32.147l14.318,0c6.025,0 8.411,0 9.796,-6.906l2.008,0c-0.504,3.391 -0.881,6.531 -0.881,9.543c0,3.013 0.377,6.28 0.881,9.669l-2.008,0c-1.385,-6.904 -3.771,-7.033 -9.796,-7.033l-14.318,0l0,27.252c0,6.027 0,8.413 6.908,9.793l0,2.011c-3.515,-0.628 -7.159,-0.881 -10.925,-0.881c-3.766,0 -7.284,0.253 -10.801,0.881l0,-2.011c6.906,-1.38 6.906,-3.766 6.906,-9.793l0,-58.394c0,-6.025 0,-8.413 -6.906,-9.793l0,-2.011l52.116,0c0.124,6.03 0.626,11.555 1.757,16.828l-2.01,0Zm-56.878,58.643c-6.782,5.024 -14.567,7.66 -23.233,7.66c-24.988,0 -42.569,-17.58 -42.569,-42.067c0,-12.057 4.141,-22.605 11.802,-30.514c7.412,-7.661 17.833,-12.055 28.381,-12.055c8.664,0 16.578,1.629 23.61,5.273l0,4.647c0,4.017 0,8.289 0.628,13.06l-2.137,0c-1.507,-11.679 -8.912,-17.456 -22.478,-17.456c-18.082,0 -31.77,14.065 -31.77,34.409c0,22.227 15.696,38.927 35.414,38.927c7.785,0 15.694,-2.637 22.858,-8.038l-0.506,6.154Zm-69.941,-73.711c-6.906,1.38 -7.035,3.766 -7.035,9.795l0,60.15c0,12.809 -3.639,20.092 -15.694,25.115l-1.129,-2.386c7.909,-4.27 9.041,-10.925 9.041,-22.481l0,-60.398c0,-6.029 -0.127,-8.415 -7.033,-9.795l0,-2.011c3.64,0.628 7.283,0.881 10.925,0.881c3.642,0 7.284,-0.253 10.925,-0.881l0,2.011Zm-40.149,133.589l183.265,0l0,-183.267l-183.265,0l0,183.267Z" style="fill:#b31e31;fill-rule:nonzero;"/><g><path d="M336.693,86.163l0,18.049l5.559,0c3.659,0 6.453,-0.812 8.379,-2.44c1.926,-1.625 2.891,-3.924 2.891,-6.892c0,-5.809 -3.54,-8.717 -10.609,-8.717l-6.22,0Zm0,22.717l0,16.637l-5.304,0l0,-44.021l12.437,0c4.846,0 8.595,1.148 11.257,3.441c2.665,2.287 3.994,5.524 3.994,9.699c0,4.175 -1.477,7.591 -4.436,10.254c-2.955,2.66 -6.953,3.99 -11.983,3.99" style="fill:#b31e31;fill-rule:nonzero;"/><path d="M373.296,86.163l0,15.963l7.198,0c1.329,0 2.555,-0.191 3.678,-0.58c1.126,-0.389 2.104,-0.95 2.92,-1.678c0.823,-0.725 1.465,-1.616 1.926,-2.666c0.465,-1.058 0.697,-2.243 0.697,-3.548c0,-2.353 -0.787,-4.188 -2.352,-5.511c-1.568,-1.318 -3.839,-1.98 -6.808,-1.98l-7.259,0Zm27.153,39.354l-6.314,0l-7.579,-12.343c-0.693,-1.142 -1.368,-2.124 -2.023,-2.93c-0.651,-0.809 -1.316,-1.468 -2.003,-1.979c-0.684,-0.511 -1.42,-0.885 -2.21,-1.12c-0.787,-0.235 -1.678,-0.351 -2.668,-0.351l-4.356,0l0,18.723l-5.304,0l0,-44.021l13.512,0c1.981,0 3.804,0.241 5.478,0.724c1.672,0.48 3.127,1.211 4.359,2.193c1.229,0.982 2.191,2.205 2.891,3.67c0.69,1.462 1.039,3.174 1.039,5.138c0,1.537 -0.236,2.945 -0.71,4.225c-0.474,1.277 -1.149,2.419 -2.02,3.419c-0.874,1.007 -1.929,1.86 -3.155,2.566c-1.236,0.706 -2.62,1.255 -4.156,1.641l0,0.122c0.759,0.329 1.417,0.703 1.975,1.117c0.558,0.423 1.09,0.922 1.594,1.493c0.506,0.574 1.003,1.226 1.497,1.951c0.5,0.724 1.048,1.571 1.661,2.531" style="fill:#b31e31;fill-rule:nonzero;"/><path d="M426.009,85.429c-4.759,0 -8.621,1.669 -11.586,5.003c-2.972,3.335 -4.453,7.717 -4.453,13.14c0,5.424 1.446,9.784 4.34,13.093c2.894,3.303 6.669,4.953 11.321,4.953c4.965,0 8.882,-1.575 11.744,-4.724c2.862,-3.152 4.294,-7.563 4.294,-13.231c0,-5.812 -1.387,-10.307 -4.168,-13.478c-2.778,-3.172 -6.608,-4.756 -11.492,-4.756m-0.378,40.828c-6.42,0 -11.563,-2.06 -15.425,-6.17c-3.865,-4.115 -5.795,-9.466 -5.795,-16.057c0,-7.079 1.968,-12.729 5.904,-16.941c3.937,-4.216 9.296,-6.327 16.071,-6.327c6.253,0 11.289,2.048 15.109,6.142c3.823,4.09 5.733,9.441 5.733,16.05c0,7.187 -1.958,12.864 -5.875,17.039c-3.913,4.175 -9.156,6.264 -15.722,6.264" style="fill:#b31e31;fill-rule:nonzero;"/><path d="M462.857,86.163l0,18.049l5.559,0c3.659,0 6.453,-0.812 8.379,-2.44c1.926,-1.625 2.891,-3.924 2.891,-6.892c0,-5.809 -3.54,-8.717 -10.609,-8.717l-6.22,0Zm0,22.717l0,16.637l-5.304,0l0,-44.021l12.437,0c4.846,0 8.596,1.148 11.257,3.441c2.665,2.287 3.995,5.524 3.995,9.699c0,4.175 -1.478,7.591 -4.437,10.254c-2.955,2.66 -6.953,3.99 -11.982,3.99" style="fill:#b31e31;fill-rule:nonzero;"/><path d="M518.151,125.517l-23.995,0l0,-44.018l22.985,0l0,4.664l-17.681,0l0,14.646l16.355,0l0,4.633l-16.355,0l0,15.408l18.691,0" style="fill:#b31e31;fill-rule:nonzero;"/><path d="M532.814,86.163l0,15.963l7.198,0c1.33,0 2.556,-0.191 3.679,-0.58c1.126,-0.389 2.103,-0.95 2.919,-1.678c0.823,-0.725 1.465,-1.616 1.927,-2.666c0.464,-1.058 0.696,-2.243 0.696,-3.548c0,-2.353 -0.787,-4.188 -2.352,-5.511c-1.568,-1.318 -3.839,-1.98 -6.807,-1.98l-7.26,0Zm27.154,39.354l-6.314,0l-7.576,-12.343c-0.697,-1.142 -1.371,-2.124 -2.026,-2.93c-0.652,-0.809 -1.316,-1.468 -2.004,-1.979c-0.684,-0.511 -1.419,-0.885 -2.21,-1.12c-0.787,-0.235 -1.677,-0.351 -2.668,-0.351l-4.356,0l0,18.723l-5.304,0l0,-44.021l13.512,0c1.981,0 3.804,0.241 5.479,0.724c1.671,0.48 3.126,1.211 4.359,2.193c1.229,0.982 2.19,2.205 2.89,3.67c0.691,1.462 1.039,3.174 1.039,5.138c0,1.537 -0.235,2.945 -0.71,4.225c-0.474,1.277 -1.148,2.419 -2.019,3.419c-0.875,1.007 -1.93,1.86 -3.156,2.566c-1.235,0.706 -2.619,1.255 -4.155,1.641l0,0.122c0.758,0.329 1.416,0.703 1.974,1.117c0.559,0.423 1.091,0.922 1.594,1.493c0.507,0.574 1.004,1.226 1.497,1.951c0.5,0.724 1.049,1.571 1.662,2.531" style="fill:#b31e31;fill-rule:nonzero;"/><path d="M593.415,86.163l-13.07,0l0,39.354l-5.307,0l0,-39.354l-13.038,0l0,-4.667l31.415,0" style="fill:#b31e31;fill-rule:nonzero;"/><path d="M633.761,81.499l-14.935,27.751l0,16.267l-5.301,0l0,-16.145l-14.557,-27.873l6.027,0l10.137,19.893c0.126,0.245 0.494,1.142 1.107,2.701l0.093,0c0.21,-0.703 0.61,-1.597 1.197,-2.701l10.612,-19.893" style="fill:#b31e31;fill-rule:nonzero;"/><path d="M707.829,125.517l-5.272,0l0,-29.529c0,-2.337 0.145,-5.192 0.442,-8.567l-0.129,0c-0.503,1.983 -0.955,3.41 -1.355,4.269l-15.47,33.827l-2.591,0l-15.442,-33.582c-0.438,-0.982 -0.893,-2.488 -1.355,-4.514l-0.125,0c0.167,1.76 0.251,4.636 0.251,8.626l0,29.47l-5.114,0l0,-44.018l7.008,0l13.893,30.696c1.074,2.353 1.768,4.113 2.084,5.276l0.19,0c0.904,-2.412 1.627,-4.212 2.178,-5.398l14.177,-30.574l6.63,0" style="fill:#b31e31;fill-rule:nonzero;"/><path d="M743.664,108.544l-7.104,-18.758c-0.229,-0.615 -0.461,-1.596 -0.69,-2.945l-0.129,0c-0.21,1.248 -0.455,2.23 -0.726,2.945l-7.04,18.758l15.689,0Zm12.409,16.973l-5.872,0l-4.801,-12.34l-19.193,0l-4.517,12.34l-5.905,0l17.368,-44.018l5.491,0" style="fill:#b31e31;fill-rule:nonzero;"/><path d="M800.526,125.517l-6.504,0l-23.301,-35.088c-0.591,-0.881 -1.071,-1.8 -1.452,-2.766l-0.19,0c0.167,0.947 0.251,2.964 0.251,6.054l0,31.8l-5.304,0l0,-44.018l6.885,0l22.669,34.536c0.948,1.433 1.558,2.415 1.832,2.945l0.126,0c-0.21,-1.267 -0.316,-3.428 -0.316,-6.48l0,-31.001l5.304,0" style="fill:#b31e31;fill-rule:nonzero;"/><path d="M836.394,108.544l-7.105,-18.758c-0.229,-0.615 -0.461,-1.596 -0.693,-2.945l-0.126,0c-0.21,1.248 -0.455,2.23 -0.726,2.945l-7.04,18.758l15.69,0Zm12.408,16.973l-5.872,0l-4.804,-12.34l-19.19,0l-4.517,12.34l-5.904,0l17.367,-44.018l5.491,0" style="fill:#b31e31;fill-rule:nonzero;"/><path d="M889.18,122.509c-4.549,2.497 -9.598,3.745 -15.154,3.745c-6.465,0 -11.689,-2.026 -15.677,-6.076c-3.991,-4.055 -5.985,-9.416 -5.985,-16.085c0,-6.816 2.22,-12.409 6.647,-16.779c4.433,-4.369 10.047,-6.552 16.845,-6.552c4.923,0 9.059,0.771 12.411,2.334l0,5.708c-3.662,-2.252 -8.004,-3.378 -13.008,-3.378c-5.079,0 -9.234,1.7 -12.474,5.094c-3.242,3.401 -4.862,7.801 -4.862,13.203c0,5.568 1.504,9.94 4.511,13.121c3.013,3.184 7.095,4.774 12.254,4.774c3.532,0 6.601,-0.684 9.188,-2.054l0,-12.34l-9.914,0l0,-4.668l15.218,0" style="fill:#b31e31;fill-rule:nonzero;"/><path d="M925.051,125.517l-23.994,0l0,-44.018l22.984,0l0,4.664l-17.68,0l0,14.646l16.354,0l0,4.633l-16.354,0l0,15.408l18.69,0" style="fill:#b31e31;fill-rule:nonzero;"/><path d="M980.574,125.517l-5.272,0l0,-29.529c0,-2.337 0.145,-5.192 0.442,-8.567l-0.129,0c-0.503,1.983 -0.955,3.41 -1.355,4.269l-15.471,33.827l-2.59,0l-15.442,-33.582c-0.439,-0.982 -0.893,-2.488 -1.355,-4.514l-0.126,0c0.168,1.76 0.252,4.636 0.252,8.626l0,29.47l-5.114,0l0,-44.018l7.008,0l13.893,30.696c1.074,2.353 1.768,4.113 2.084,5.276l0.19,0c0.904,-2.412 1.626,-4.212 2.178,-5.398l14.177,-30.574l6.63,0" style="fill:#b31e31;fill-rule:nonzero;"/><path d="M1017.51,125.517l-23.994,0l0,-44.018l22.984,0l0,4.664l-17.68,0l0,14.646l16.354,0l0,4.633l-16.354,0l0,15.408l18.69,0" style="fill:#b31e31;fill-rule:nonzero;"/><path d="M1063.37,125.517l-6.504,0l-23.301,-35.088c-0.591,-0.881 -1.071,-1.8 -1.452,-2.766l-0.191,0c0.168,0.947 0.252,2.964 0.252,6.054l0,31.8l-5.304,0l0,-44.018l6.885,0l22.669,34.536c0.948,1.433 1.558,2.415 1.832,2.945l0.126,0c-0.206,-1.267 -0.316,-3.428 -0.316,-6.48l0,-31.001l5.304,0" style="fill:#b31e31;fill-rule:nonzero;"/><path d="M1103.04,86.163l-13.07,0l0,39.354l-5.308,0l0,-39.354l-13.041,0l0,-4.667l31.419,0" style="fill:#b31e31;fill-rule:nonzero;"/><path d="M353.567,161.85l-10.667,19.821l0,11.625l-3.791,0l0,-11.537l-10.395,-19.909l4.307,0l7.24,14.207c0.091,0.182 0.352,0.825 0.787,1.935l0.068,0c0.152,-0.496 0.439,-1.142 0.858,-1.935l7.576,-14.207" style="fill:#631934;fill-rule:nonzero;"/><path d="M370.97,164.658c-3.401,0 -6.159,1.188 -8.276,3.572c-2.12,2.381 -3.181,5.512 -3.181,9.382c0,3.877 1.032,6.995 3.1,9.354c2.069,2.362 4.763,3.548 8.086,3.548c3.546,0 6.346,-1.126 8.392,-3.382c2.042,-2.245 3.065,-5.401 3.065,-9.447c0,-4.15 -0.991,-7.359 -2.978,-9.627c-1.985,-2.265 -4.72,-3.4 -8.208,-3.4m-0.271,29.162c-4.585,0 -8.26,-1.468 -11.018,-4.404c-2.759,-2.942 -4.136,-6.76 -4.136,-11.474c0,-5.054 1.406,-9.091 4.216,-12.099c2.811,-3.008 6.64,-4.513 11.48,-4.513c4.465,0 8.063,1.458 10.792,4.385c2.73,2.917 4.091,6.737 4.091,11.465c0,5.128 -1.397,9.184 -4.191,12.167c-2.8,2.98 -6.543,4.473 -11.234,4.473" style="fill:#631934;fill-rule:nonzero;"/><path d="M417.249,180.577c0,8.827 -4.098,13.246 -12.293,13.246c-7.849,0 -11.769,-4.244 -11.769,-12.738l0,-19.235l3.787,0l0,18.993c0,6.443 2.798,9.668 8.389,9.668c5.398,0 8.098,-3.118 8.098,-9.341l0,-19.32l3.788,0" style="fill:#631934;fill-rule:nonzero;"/><path d="M430.083,165.185l0,11.405l5.143,0c0.949,0 1.823,-0.141 2.627,-0.417c0.803,-0.283 1.5,-0.681 2.087,-1.195c0.584,-0.518 1.042,-1.155 1.374,-1.908c0.333,-0.752 0.497,-1.596 0.497,-2.537c0,-1.675 -0.561,-2.993 -1.681,-3.931c-1.119,-0.947 -2.739,-1.417 -4.859,-1.417l-5.188,0Zm19.397,28.114l-4.513,0l-5.411,-8.82c-0.497,-0.816 -0.978,-1.518 -1.445,-2.092c-0.465,-0.574 -0.942,-1.048 -1.43,-1.418c-0.49,-0.364 -1.019,-0.631 -1.577,-0.794c-0.568,-0.172 -1.204,-0.254 -1.907,-0.254l-3.114,0l0,13.378l-3.787,0l0,-31.443l9.65,0c1.413,0 2.72,0.167 3.913,0.515c1.194,0.345 2.233,0.866 3.114,1.562c0.881,0.7 1.568,1.575 2.061,2.622c0.497,1.048 0.746,2.271 0.746,3.677c0,1.094 -0.168,2.101 -0.507,3.008c-0.339,0.916 -0.819,1.734 -1.445,2.45c-0.623,0.712 -1.371,1.323 -2.255,1.828c-0.878,0.502 -1.869,0.897 -2.962,1.177l0,0.084c0.539,0.232 1.01,0.502 1.41,0.806c0.393,0.292 0.774,0.65 1.135,1.058c0.362,0.414 0.717,0.872 1.072,1.395c0.354,0.518 0.748,1.123 1.184,1.807" style="fill:#631934;fill-rule:nonzero;"/><path d="M476.456,165.185l0,12.895l3.969,0c2.616,0 4.613,-0.587 5.984,-1.741c1.381,-1.164 2.069,-2.807 2.069,-4.928c0,-4.153 -2.53,-6.226 -7.579,-6.226l-4.443,0Zm0,16.229l0,11.885l-3.788,0l0,-31.443l8.883,0c3.458,0 6.139,0.813 8.043,2.45c1.9,1.641 2.852,3.946 2.852,6.929c0,2.987 -1.055,5.424 -3.168,7.328c-2.114,1.901 -4.966,2.851 -8.56,2.851" style="fill:#631934;fill-rule:nonzero;"/><path d="M502.696,165.185l0,11.405l5.143,0c0.949,0 1.823,-0.141 2.626,-0.417c0.804,-0.283 1.501,-0.681 2.088,-1.195c0.584,-0.518 1.042,-1.155 1.374,-1.908c0.333,-0.752 0.497,-1.596 0.497,-2.537c0,-1.675 -0.561,-2.993 -1.681,-3.931c-1.119,-0.947 -2.739,-1.417 -4.859,-1.417l-5.188,0Zm19.397,28.114l-4.513,0l-5.411,-8.82c-0.497,-0.816 -0.978,-1.518 -1.446,-2.092c-0.464,-0.574 -0.942,-1.048 -1.429,-1.418c-0.49,-0.364 -1.019,-0.631 -1.578,-0.794c-0.567,-0.172 -1.203,-0.254 -1.906,-0.254l-3.114,0l0,13.378l-3.788,0l0,-31.443l9.651,0c1.413,0 2.719,0.167 3.913,0.515c1.194,0.345 2.233,0.866 3.114,1.562c0.88,0.7 1.568,1.575 2.061,2.622c0.497,1.048 0.746,2.271 0.746,3.677c0,1.094 -0.168,2.101 -0.507,3.008c-0.339,0.916 -0.819,1.734 -1.445,2.45c-0.623,0.712 -1.372,1.323 -2.256,1.828c-0.877,0.502 -1.868,0.897 -2.961,1.177l0,0.084c0.538,0.232 1.009,0.502 1.409,0.806c0.394,0.292 0.775,0.65 1.136,1.058c0.362,0.414 0.716,0.872 1.071,1.395c0.355,0.518 0.749,1.123 1.188,1.807" style="fill:#631934;fill-rule:nonzero;"/><path d="M540.438,164.658c-3.4,0 -6.159,1.188 -8.275,3.572c-2.12,2.381 -3.181,5.512 -3.181,9.382c0,3.877 1.032,6.995 3.1,9.354c2.068,2.362 4.762,3.548 8.085,3.548c3.546,0 6.347,-1.126 8.392,-3.382c2.042,-2.245 3.065,-5.401 3.065,-9.447c0,-4.15 -0.99,-7.359 -2.975,-9.627c-1.987,-2.265 -4.723,-3.4 -8.211,-3.4m-0.271,29.162c-4.584,0 -8.259,-1.468 -11.018,-4.404c-2.758,-2.942 -4.136,-6.76 -4.136,-11.474c0,-5.054 1.407,-9.091 4.217,-12.099c2.81,-3.008 6.64,-4.513 11.479,-4.513c4.466,0 8.063,1.458 10.789,4.385c2.733,2.917 4.095,6.737 4.095,11.465c0,5.128 -1.401,9.184 -4.195,12.167c-2.797,2.98 -6.539,4.473 -11.231,4.473" style="fill:#631934;fill-rule:nonzero;"/><path d="M566.853,165.185l0,12.895l3.968,0c2.617,0 4.614,-0.587 5.985,-1.741c1.381,-1.164 2.068,-2.807 2.068,-4.928c0,-4.153 -2.526,-6.226 -7.579,-6.226l-4.442,0Zm0,16.229l0,11.885l-3.788,0l0,-31.443l8.882,0c3.459,0 6.14,0.813 8.043,2.45c1.901,1.641 2.853,3.946 2.853,6.929c0,2.987 -1.055,5.424 -3.169,7.328c-2.113,1.901 -4.965,2.851 -8.556,2.851" style="fill:#631934;fill-rule:nonzero;"/><path d="M606.44,193.293l-17.138,0l0,-31.443l16.419,0l0,3.331l-12.631,0l0,10.462l11.682,0l0,3.312l-11.682,0l0,11.01l13.35,0" style="fill:#631934;fill-rule:nonzero;"/><path d="M617.007,165.185l0,11.405l5.143,0c0.948,0 1.822,-0.141 2.626,-0.417c0.803,-0.283 1.5,-0.681 2.087,-1.195c0.584,-0.518 1.042,-1.155 1.375,-1.908c0.332,-0.752 0.497,-1.596 0.497,-2.537c0,-1.675 -0.559,-2.993 -1.681,-3.931c-1.12,-0.947 -2.74,-1.417 -4.859,-1.417l-5.188,0Zm19.397,28.114l-4.514,0l-5.411,-8.82c-0.497,-0.816 -0.977,-1.518 -1.445,-2.092c-0.465,-0.574 -0.942,-1.048 -1.429,-1.418c-0.491,-0.364 -1.02,-0.631 -1.578,-0.794c-0.568,-0.172 -1.204,-0.254 -1.907,-0.254l-3.113,0l0,13.378l-3.788,0l0,-31.443l9.65,0c1.413,0 2.72,0.167 3.914,0.515c1.193,0.345 2.232,0.866 3.113,1.562c0.881,0.7 1.568,1.575 2.058,2.622c0.504,1.048 0.749,2.271 0.749,3.677c0,1.094 -0.168,2.101 -0.507,3.008c-0.338,0.916 -0.819,1.734 -1.445,2.45c-0.619,0.712 -1.371,1.323 -2.255,1.828c-0.878,0.502 -1.868,0.897 -2.962,1.177l0,0.084c0.539,0.232 1.01,0.502 1.41,0.806c0.394,0.292 0.774,0.65 1.136,1.058c0.361,0.414 0.716,0.872 1.071,1.395c0.355,0.518 0.748,1.123 1.184,1.807" style="fill:#631934;fill-rule:nonzero;"/><path d="M660.43,165.185l-9.337,0l0,28.114l-3.791,0l0,-28.114l-9.311,0l0,-3.329l22.439,0" style="fill:#631934;fill-rule:nonzero;"/><path d="M689.342,161.85l-10.67,19.821l0,11.625l-3.787,0l0,-11.537l-10.396,-19.909l4.307,0l7.24,14.207c0.091,0.182 0.352,0.825 0.791,1.935l0.064,0c0.152,-0.496 0.439,-1.142 0.859,-1.935l7.575,-14.207" style="fill:#631934;fill-rule:nonzero;"/><path d="M695.03,188.293l-3.61,10.791l-2.636,0l2.636,-10.791" style="fill:#631934;fill-rule:nonzero;"/><path d="M734.211,164.658c-3.4,0 -6.156,1.188 -8.275,3.572c-2.12,2.381 -3.182,5.512 -3.182,9.382c0,3.877 1.033,6.995 3.101,9.354c2.068,2.362 4.762,3.548 8.085,3.548c3.546,0 6.346,-1.126 8.392,-3.382c2.042,-2.245 3.065,-5.401 3.065,-9.447c0,-4.15 -0.99,-7.359 -2.978,-9.627c-1.984,-2.265 -4.72,-3.4 -8.208,-3.4m-0.271,29.162c-4.584,0 -8.259,-1.468 -11.018,-4.404c-2.758,-2.942 -4.136,-6.76 -4.136,-11.474c0,-5.054 1.403,-9.091 4.217,-12.099c2.807,-3.008 6.64,-4.513 11.479,-4.513c4.466,0 8.063,1.458 10.792,4.385c2.73,2.917 4.091,6.737 4.091,11.465c0,5.128 -1.397,9.184 -4.191,12.167c-2.8,2.98 -6.543,4.473 -11.234,4.473" style="fill:#631934;fill-rule:nonzero;"/><path d="M780.497,180.577c0,8.827 -4.098,13.246 -12.293,13.246c-7.849,0 -11.77,-4.244 -11.77,-12.738l0,-19.235l3.785,0l0,18.993c0,6.443 2.797,9.668 8.392,9.668c5.398,0 8.098,-3.118 8.098,-9.341l0,-19.32l3.788,0" style="fill:#631934;fill-rule:nonzero;"/><path d="M793.328,165.185l0,11.405l5.143,0c0.948,0 1.823,-0.141 2.626,-0.417c0.804,-0.283 1.5,-0.681 2.088,-1.195c0.584,-0.518 1.042,-1.155 1.371,-1.908c0.335,-0.752 0.5,-1.596 0.5,-2.537c0,-1.675 -0.558,-2.993 -1.681,-3.931c-1.12,-0.947 -2.739,-1.417 -4.859,-1.417l-5.188,0Zm19.397,28.114l-4.514,0l-5.41,-8.82c-0.497,-0.816 -0.978,-1.518 -1.446,-2.092c-0.464,-0.574 -0.942,-1.048 -1.429,-1.418c-0.49,-0.364 -1.02,-0.631 -1.578,-0.794c-0.568,-0.172 -1.203,-0.254 -1.906,-0.254l-3.114,0l0,13.378l-3.788,0l0,-31.443l9.65,0c1.414,0 2.72,0.167 3.914,0.515c1.194,0.345 2.233,0.866 3.113,1.562c0.881,0.7 1.568,1.575 2.059,2.622c0.503,1.048 0.748,2.271 0.748,3.677c0,1.094 -0.167,2.101 -0.506,3.008c-0.339,0.916 -0.82,1.734 -1.446,2.45c-0.619,0.712 -1.371,1.323 -2.255,1.828c-0.877,0.502 -1.868,0.897 -2.962,1.177l0,0.084c0.539,0.232 1.01,0.502 1.41,0.806c0.394,0.292 0.775,0.65 1.136,1.058c0.361,0.414 0.716,0.872 1.071,1.395c0.355,0.518 0.749,1.123 1.184,1.807" style="fill:#631934;fill-rule:nonzero;"/><path d="M839.701,165.185l0,12.895l3.968,0c2.617,0 4.614,-0.587 5.985,-1.741c1.381,-1.164 2.068,-2.807 2.068,-4.928c0,-4.153 -2.526,-6.226 -7.579,-6.226l-4.442,0Zm0,16.229l0,11.885l-3.785,0l0,-31.443l8.879,0c3.459,0 6.14,0.813 8.044,2.45c1.9,1.641 2.852,3.946 2.852,6.929c0,2.987 -1.055,5.424 -3.169,7.328c-2.11,1.901 -4.965,2.851 -8.556,2.851" style="fill:#631934;fill-rule:nonzero;"/><path d="M865.941,165.185l0,11.405l5.143,0c0.948,0 1.823,-0.141 2.626,-0.417c0.803,-0.283 1.5,-0.681 2.087,-1.195c0.584,-0.518 1.043,-1.155 1.372,-1.908c0.335,-0.752 0.5,-1.596 0.5,-2.537c0,-1.675 -0.558,-2.993 -1.681,-3.931c-1.12,-0.947 -2.739,-1.417 -4.859,-1.417l-5.188,0Zm19.397,28.114l-4.514,0l-5.41,-8.82c-0.497,-0.816 -0.978,-1.518 -1.446,-2.092c-0.465,-0.574 -0.942,-1.048 -1.429,-1.418c-0.491,-0.364 -1.02,-0.631 -1.578,-0.794c-0.568,-0.172 -1.203,-0.254 -1.907,-0.254l-3.113,0l0,13.378l-3.788,0l0,-31.443l9.65,0c1.413,0 2.72,0.167 3.914,0.515c1.194,0.345 2.232,0.866 3.113,1.562c0.881,0.7 1.568,1.575 2.059,2.622c0.503,1.048 0.748,2.271 0.748,3.677c0,1.094 -0.168,2.101 -0.506,3.008c-0.339,0.916 -0.82,1.734 -1.446,2.45c-0.619,0.712 -1.371,1.323 -2.258,1.828c-0.875,0.502 -1.865,0.897 -2.959,1.177l0,0.084c0.539,0.232 1.01,0.502 1.41,0.806c0.39,0.292 0.774,0.65 1.136,1.058c0.361,0.414 0.716,0.872 1.071,1.395c0.355,0.518 0.748,1.123 1.184,1.807" style="fill:#631934;fill-rule:nonzero;"/><path d="M903.683,164.658c-3.401,0 -6.156,1.188 -8.276,3.572c-2.119,2.381 -3.181,5.512 -3.181,9.382c0,3.877 1.033,6.995 3.101,9.354c2.068,2.362 4.762,3.548 8.085,3.548c3.546,0 6.346,-1.126 8.392,-3.382c2.042,-2.245 3.065,-5.401 3.065,-9.447c0,-4.15 -0.991,-7.359 -2.978,-9.627c-1.984,-2.265 -4.72,-3.4 -8.208,-3.4m-0.271,29.162c-4.585,0 -8.26,-1.468 -11.018,-4.404c-2.759,-2.942 -4.136,-6.76 -4.136,-11.474c0,-5.054 1.403,-9.091 4.217,-12.099c2.807,-3.008 6.639,-4.513 11.479,-4.513c4.465,0 8.063,1.458 10.792,4.385c2.73,2.917 4.091,6.737 4.091,11.465c0,5.128 -1.397,9.184 -4.191,12.167c-2.8,2.98 -6.543,4.473 -11.234,4.473" style="fill:#631934;fill-rule:nonzero;"/><path d="M942.725,165.185l-12.631,0l0,10.878l11.683,0l0,3.306l-11.683,0l0,13.93l-3.788,0l0,-31.443l16.419,0" style="fill:#631934;fill-rule:nonzero;"/><path d="M966.368,193.293l-17.138,0l0,-31.443l16.419,0l0,3.331l-12.632,0l0,10.462l11.683,0l0,3.312l-11.683,0l0,11.01l13.351,0" style="fill:#631934;fill-rule:nonzero;"/><path d="M972.098,192.02l0,-4.339c0.507,0.436 1.12,0.832 1.839,1.18c0.71,0.354 1.462,0.646 2.252,0.891c0.791,0.238 1.584,0.429 2.381,0.561c0.794,0.132 1.533,0.195 2.207,0.195c2.333,0 4.075,-0.424 5.224,-1.264c1.152,-0.838 1.723,-2.042 1.723,-3.627c0,-0.846 -0.191,-1.584 -0.571,-2.214c-0.384,-0.627 -0.914,-1.198 -1.591,-1.716c-0.678,-0.524 -1.478,-1.023 -2.404,-1.493c-0.922,-0.474 -1.919,-0.976 -2.991,-1.503c-1.122,-0.558 -2.177,-1.119 -3.155,-1.693c-0.978,-0.568 -1.826,-1.199 -2.546,-1.879c-0.722,-0.694 -1.29,-1.471 -1.703,-2.34c-0.416,-0.869 -0.623,-1.892 -0.623,-3.056c0,-1.436 0.326,-2.681 0.971,-3.735c0.646,-1.067 1.494,-1.942 2.546,-2.623c1.055,-0.693 2.255,-1.204 3.601,-1.54c1.345,-0.332 2.716,-0.502 4.116,-0.502c3.185,0 5.508,0.37 6.969,1.117l0,4.15c-1.91,-1.292 -4.362,-1.936 -7.352,-1.936c-0.826,0 -1.656,0.091 -2.485,0.251c-0.823,0.173 -1.558,0.446 -2.207,0.829c-0.645,0.379 -1.174,0.868 -1.581,1.464c-0.403,0.6 -0.606,1.33 -0.606,2.193c0,0.806 0.155,1.496 0.461,2.086c0.31,0.58 0.762,1.12 1.365,1.603c0.603,0.477 1.336,0.944 2.197,1.402c0.868,0.448 1.862,0.947 2.991,1.493c1.155,0.549 2.249,1.139 3.291,1.753c1.036,0.612 1.945,1.287 2.729,2.036c0.781,0.744 1.404,1.575 1.862,2.475c0.458,0.907 0.687,1.948 0.687,3.115c0,1.55 -0.313,2.861 -0.935,3.94c-0.626,1.069 -1.468,1.945 -2.527,2.622c-1.058,0.665 -2.281,1.158 -3.665,1.452c-1.381,0.305 -2.842,0.455 -4.375,0.455c-0.51,0 -1.142,-0.047 -1.894,-0.122c-0.751,-0.085 -1.516,-0.204 -2.3,-0.355c-0.781,-0.15 -1.523,-0.345 -2.223,-0.567c-0.7,-0.226 -1.258,-0.477 -1.678,-0.759" style="fill:#631934;fill-rule:nonzero;"/><path d="M997.516,192.02l0,-4.339c0.506,0.436 1.119,0.832 1.839,1.18c0.709,0.354 1.461,0.646 2.252,0.891c0.79,0.238 1.584,0.429 2.381,0.561c0.793,0.132 1.532,0.195 2.207,0.195c2.332,0 4.075,-0.424 5.223,-1.264c1.152,-0.838 1.723,-2.042 1.723,-3.627c0,-0.846 -0.19,-1.584 -0.571,-2.214c-0.384,-0.627 -0.916,-1.198 -1.591,-1.716c-0.677,-0.524 -1.477,-1.023 -2.403,-1.493c-0.923,-0.474 -1.92,-0.976 -2.991,-1.503c-1.123,-0.558 -2.178,-1.119 -3.156,-1.693c-0.977,-0.568 -1.826,-1.199 -2.545,-1.879c-0.723,-0.694 -1.291,-1.471 -1.704,-2.34c-0.416,-0.869 -0.622,-1.892 -0.622,-3.056c0,-1.436 0.325,-2.681 0.971,-3.735c0.645,-1.067 1.494,-1.942 2.545,-2.623c1.055,-0.693 2.256,-1.204 3.601,-1.54c1.345,-0.332 2.717,-0.502 4.117,-0.502c3.184,0 5.507,0.37 6.969,1.117l0,4.15c-1.91,-1.292 -4.362,-1.936 -7.353,-1.936c-0.826,0 -1.655,0.091 -2.484,0.251c-0.823,0.173 -1.559,0.446 -2.207,0.829c-0.646,0.379 -1.175,0.868 -1.581,1.464c-0.403,0.6 -0.607,1.33 -0.607,2.193c0,0.806 0.155,1.496 0.462,2.086c0.309,0.58 0.761,1.12 1.361,1.603c0.607,0.477 1.339,0.944 2.201,1.402c0.867,0.448 1.861,0.947 2.99,1.493c1.155,0.549 2.249,1.139 3.291,1.753c1.036,0.612 1.946,1.287 2.73,2.036c0.781,0.744 1.403,1.575 1.861,2.475c0.459,0.907 0.688,1.948 0.688,3.115c0,1.55 -0.313,2.861 -0.936,3.94c-0.626,1.069 -1.468,1.945 -2.526,2.622c-1.058,0.665 -2.281,1.158 -3.665,1.452c-1.381,0.305 -2.843,0.455 -4.375,0.455c-0.51,0 -1.143,-0.047 -1.894,-0.122c-0.752,-0.085 -1.517,-0.204 -2.301,-0.355c-0.78,-0.15 -1.526,-0.345 -2.223,-0.567c-0.7,-0.226 -1.258,-0.477 -1.677,-0.759" style="fill:#631934;fill-rule:nonzero;"/><path d="M1031.8,161.85l0,3.162l-3.155,0l0,25.122l3.155,0l0,3.162l-10.102,0l0,-3.162l3.156,0l0,-25.122l-3.156,0l0,-3.162" style="fill:#631934;fill-rule:nonzero;"/><path d="M1051.75,164.658c-3.401,0 -6.156,1.188 -8.276,3.572c-2.12,2.381 -3.181,5.512 -3.181,9.382c0,3.877 1.032,6.995 3.1,9.354c2.068,2.362 4.762,3.548 8.086,3.548c3.545,0 6.346,-1.126 8.391,-3.382c2.043,-2.245 3.065,-5.401 3.065,-9.447c0,-4.15 -0.99,-7.359 -2.978,-9.627c-1.984,-2.265 -4.72,-3.4 -8.207,-3.4m-0.271,29.162c-4.585,0 -8.263,-1.468 -11.019,-4.404c-2.758,-2.942 -4.136,-6.76 -4.136,-11.474c0,-5.054 1.404,-9.091 4.217,-12.099c2.807,-3.008 6.64,-4.513 11.48,-4.513c4.465,0 8.062,1.458 10.792,4.385c2.729,2.917 4.091,6.737 4.091,11.465c0,5.128 -1.397,9.184 -4.191,12.167c-2.801,2.98 -6.543,4.473 -11.234,4.473" style="fill:#631934;fill-rule:nonzero;"/><path d="M1100.44,193.293l-4.646,0l-16.645,-25.063c-0.419,-0.627 -0.764,-1.286 -1.035,-1.97l-0.136,0c0.12,0.669 0.181,2.115 0.181,4.317l0,22.716l-3.791,0l0,-31.443l4.917,0l16.193,24.665c0.674,1.028 1.113,1.728 1.307,2.104l0.093,0c-0.151,-0.897 -0.222,-2.446 -0.222,-4.617l0,-22.152l3.784,0" style="fill:#631934;fill-rule:nonzero;"/></g></svg>