<?xml version="1.0" encoding="utf-8"?>
<!-- Generator: Adobe Illustrator 23.0.5, SVG Export Plug-In . SVG Version: 6.00 Build 0)  -->
<svg version="1.1" id="Layer_1" xmlns:serif="http://www.serif.com/"
	 xmlns="http://www.w3.org/2000/svg" xmlns:xlink="http://www.w3.org/1999/xlink" x="0px" y="0px" viewBox="0 0 1104 270"
	 style="enable-background:new 0 0 1104 270;" xml:space="preserve">
<style type="text/css">
	.st0{fill:#FFFFFF;}
</style>
<path class="st0" d="M144.7,0v21.6h103.7v226.8H144.7V270H270V0"/>
<path class="st0" d="M0,0v270h125.2v-21.6H21.6V21.6h103.6V0"/>
<path class="st0" d="M210.5,108.1c-2.3-11-5.8-11.3-15.4-11.3h-21.6v32.1h14.3c6,0,8.4,0,9.8-6.9h2c-0.5,3.4-0.9,6.5-0.9,9.5
	c0,3,0.4,6.3,0.9,9.7h-2c-1.4-6.9-3.8-7-9.8-7h-14.3v27.3c0,6,0,8.4,6.9,9.8v2c-3.5-0.6-7.2-0.9-10.9-0.9s-7.3,0.3-10.8,0.9v-2
	c6.9-1.4,6.9-3.8,6.9-9.8v-58.4c0-6,0-8.4-6.9-9.8v-2h52.1c0.1,6,0.6,11.6,1.8,16.8L210.5,108.1L210.5,108.1z M153.6,166.7
	c-6.8,5-14.6,7.7-23.2,7.7c-25,0-42.6-17.6-42.6-42.1c0-12.1,4.1-22.6,11.8-30.5c7.4-7.7,17.8-12.1,28.4-12.1
	c8.7,0,16.6,1.6,23.6,5.3v4.6c0,4,0,8.3,0.6,13.1h-2.1c-1.5-11.7-8.9-17.5-22.5-17.5c-18.1,0-31.8,14.1-31.8,34.4
	c0,22.2,15.7,38.9,35.4,38.9c7.8,0,15.7-2.6,22.9-8L153.6,166.7L153.6,166.7z M83.7,93c-6.9,1.4-7,3.8-7,9.8V163
	c0,12.8-3.6,20.1-15.7,25.1l-1.1-2.4c7.9-4.3,9-10.9,9-22.5v-60.4c0-6-0.1-8.4-7-9.8v-2c3.6,0.6,7.3,0.9,10.9,0.9S80,91.6,83.7,91
	L83.7,93L83.7,93z M43.5,226.6h183.3V43.4H43.5C43.5,43.4,43.5,226.6,43.5,226.6z"/>
<g>
	<path class="st0" d="M336.7,86.2v18h5.6c3.7,0,6.5-0.8,8.4-2.4c1.9-1.6,2.9-3.9,2.9-6.9c0-5.8-3.5-8.7-10.6-8.7H336.7L336.7,86.2z
		 M336.7,108.9v16.6h-5.3v-44h12.4c4.8,0,8.6,1.1,11.3,3.4c2.7,2.3,4,5.5,4,9.7c0,4.2-1.5,7.6-4.4,10.3c-3,2.7-7,4-12,4"/>
	<path class="st0" d="M373.3,86.2v16h7.2c1.3,0,2.6-0.2,3.7-0.6c1.1-0.4,2.1-0.9,2.9-1.7c0.8-0.7,1.5-1.6,1.9-2.7
		c0.5-1.1,0.7-2.2,0.7-3.5c0-2.4-0.8-4.2-2.4-5.5c-1.6-1.3-3.8-2-6.8-2C380.6,86.2,373.3,86.2,373.3,86.2z M400.4,125.5h-6.3
		l-7.6-12.3c-0.7-1.1-1.4-2.1-2-2.9c-0.7-0.8-1.3-1.5-2-2c-0.7-0.5-1.4-0.9-2.2-1.1c-0.8-0.2-1.7-0.4-2.7-0.4h-4.4v18.7H368v-44
		h13.5c2,0,3.8,0.2,5.5,0.7c1.7,0.5,3.1,1.2,4.4,2.2c1.2,1,2.2,2.2,2.9,3.7c0.7,1.5,1,3.2,1,5.1c0,1.5-0.2,2.9-0.7,4.2
		c-0.5,1.3-1.1,2.4-2,3.4c-0.9,1-1.9,1.9-3.2,2.6c-1.2,0.7-2.6,1.3-4.2,1.6v0.1c0.8,0.3,1.4,0.7,2,1.1c0.6,0.4,1.1,0.9,1.6,1.5
		c0.5,0.6,1,1.2,1.5,2c0.5,0.7,1,1.6,1.7,2.5"/>
	<path class="st0" d="M426,85.4c-4.8,0-8.6,1.7-11.6,5c-3,3.3-4.5,7.7-4.5,13.1c0,5.4,1.4,9.8,4.3,13.1c2.9,3.3,6.7,5,11.3,5
		c5,0,8.9-1.6,11.7-4.7c2.9-3.2,4.3-7.6,4.3-13.2c0-5.8-1.4-10.3-4.2-13.5C434.7,87,430.9,85.4,426,85.4 M425.6,126.3
		c-6.4,0-11.6-2.1-15.4-6.2c-3.9-4.1-5.8-9.5-5.8-16.1c0-7.1,2-12.7,5.9-16.9c3.9-4.2,9.3-6.3,16.1-6.3c6.3,0,11.3,2,15.1,6.1
		c3.8,4.1,5.7,9.4,5.7,16c0,7.2-2,12.9-5.9,17C437.4,124.2,432.2,126.3,425.6,126.3"/>
	<path class="st0" d="M462.9,86.2v18h5.6c3.7,0,6.5-0.8,8.4-2.4c1.9-1.6,2.9-3.9,2.9-6.9c0-5.8-3.5-8.7-10.6-8.7H462.9L462.9,86.2z
		 M462.9,108.9v16.6h-5.3v-44H470c4.8,0,8.6,1.1,11.3,3.4c2.7,2.3,4,5.5,4,9.7c0,4.2-1.5,7.6-4.4,10.3c-3,2.7-7,4-12,4"/>
	<path class="st0" d="M518.2,125.5h-24v-44h23v4.7h-17.7v14.6h16.4v4.6h-16.4v15.4h18.7"/>
	<path class="st0" d="M532.8,86.2v16h7.2c1.3,0,2.6-0.2,3.7-0.6c1.1-0.4,2.1-0.9,2.9-1.7c0.8-0.7,1.5-1.6,1.9-2.7
		c0.5-1.1,0.7-2.2,0.7-3.5c0-2.4-0.8-4.2-2.4-5.5c-1.6-1.3-3.8-2-6.8-2C540.1,86.2,532.8,86.2,532.8,86.2z M560,125.5h-6.3
		l-7.6-12.3c-0.7-1.1-1.4-2.1-2-2.9c-0.7-0.8-1.3-1.5-2-2c-0.7-0.5-1.4-0.9-2.2-1.1c-0.8-0.2-1.7-0.4-2.7-0.4h-4.4v18.7h-5.3v-44
		H541c2,0,3.8,0.2,5.5,0.7c1.7,0.5,3.1,1.2,4.4,2.2c1.2,1,2.2,2.2,2.9,3.7c0.7,1.5,1,3.2,1,5.1c0,1.5-0.2,2.9-0.7,4.2
		c-0.5,1.3-1.1,2.4-2,3.4c-0.9,1-1.9,1.9-3.2,2.6c-1.2,0.7-2.6,1.3-4.2,1.6v0.1c0.8,0.3,1.4,0.7,2,1.1c0.6,0.4,1.1,0.9,1.6,1.5
		c0.5,0.6,1,1.2,1.5,2c0.5,0.7,1,1.6,1.7,2.5"/>
	<path class="st0" d="M593.4,86.2h-13.1v39.4H575V86.2h-13v-4.7h31.4"/>
	<path class="st0" d="M633.8,81.5l-14.9,27.8v16.3h-5.3v-16.1L599,81.5h6l10.1,19.9c0.1,0.2,0.5,1.1,1.1,2.7h0.1
		c0.2-0.7,0.6-1.6,1.2-2.7l10.6-19.9"/>
	<path class="st0" d="M707.8,125.5h-5.3V96c0-2.3,0.1-5.2,0.4-8.6h-0.1c-0.5,2-1,3.4-1.4,4.3L686,125.5h-2.6L668,91.9
		c-0.4-1-0.9-2.5-1.4-4.5h-0.1c0.2,1.8,0.3,4.6,0.3,8.6v29.5h-5.1v-44h7l13.9,30.7c1.1,2.4,1.8,4.1,2.1,5.3h0.2
		c0.9-2.4,1.6-4.2,2.2-5.4l14.2-30.6h6.6"/>
	<path class="st0" d="M743.7,108.5l-7.1-18.8c-0.2-0.6-0.5-1.6-0.7-2.9h-0.1c-0.2,1.2-0.5,2.2-0.7,2.9l-7,18.8
		C728,108.5,743.7,108.5,743.7,108.5z M756.1,125.5h-5.9l-4.8-12.3h-19.2l-4.5,12.3h-5.9l17.4-44h5.5"/>
	<path class="st0" d="M800.5,125.5H794l-23.3-35.1c-0.6-0.9-1.1-1.8-1.5-2.8h-0.2c0.2,0.9,0.3,3,0.3,6.1v31.8H764v-44h6.9l22.7,34.5
		c0.9,1.4,1.6,2.4,1.8,2.9h0.1c-0.2-1.3-0.3-3.4-0.3-6.5v-31h5.3"/>
	<path class="st0" d="M836.4,108.5l-7.1-18.8c-0.2-0.6-0.5-1.6-0.7-2.9h-0.1c-0.2,1.2-0.5,2.2-0.7,2.9l-7,18.8L836.4,108.5
		L836.4,108.5z M848.8,125.5h-5.9l-4.8-12.3h-19.2l-4.5,12.3h-5.9l17.4-44h5.5"/>
	<path class="st0" d="M889.2,122.5c-4.5,2.5-9.6,3.7-15.2,3.7c-6.5,0-11.7-2-15.7-6.1c-4-4.1-6-9.4-6-16.1c0-6.8,2.2-12.4,6.6-16.8
		c4.4-4.4,10-6.6,16.8-6.6c4.9,0,9.1,0.8,12.4,2.3v5.7c-3.7-2.3-8-3.4-13-3.4c-5.1,0-9.2,1.7-12.5,5.1c-3.2,3.4-4.9,7.8-4.9,13.2
		c0,5.6,1.5,9.9,4.5,13.1c3,3.2,7.1,4.8,12.3,4.8c3.5,0,6.6-0.7,9.2-2.1v-12.3H874v-4.7h15.2"/>
	<path class="st0" d="M925.1,125.5h-24v-44h23v4.7h-17.7v14.6h16.4v4.6h-16.4v15.4h18.7"/>
	<path class="st0" d="M980.6,125.5h-5.3V96c0-2.3,0.1-5.2,0.4-8.6h-0.1c-0.5,2-1,3.4-1.4,4.3l-15.5,33.8h-2.6l-15.4-33.6
		c-0.4-1-0.9-2.5-1.4-4.5h-0.1c0.2,1.8,0.3,4.6,0.3,8.6v29.5h-5.1v-44h7l13.9,30.7c1.1,2.4,1.8,4.1,2.1,5.3h0.2
		c0.9-2.4,1.6-4.2,2.2-5.4l14.2-30.6h6.6"/>
	<path class="st0" d="M1017.5,125.5h-24v-44h23v4.7h-17.7v14.6h16.4v4.6h-16.4v15.4h18.7"/>
	<path class="st0" d="M1063.4,125.5h-6.5l-23.3-35.1c-0.6-0.9-1.1-1.8-1.5-2.8h-0.2c0.2,0.9,0.3,3,0.3,6.1v31.8h-5.3v-44h6.9
		l22.7,34.5c0.9,1.4,1.6,2.4,1.8,2.9h0.1c-0.2-1.3-0.3-3.4-0.3-6.5v-31h5.3"/>
	<path class="st0" d="M1103,86.2H1090v39.4h-5.3V86.2h-13v-4.7h31.4"/>
	<path class="st0" d="M353.6,161.9l-10.7,19.8v11.6h-3.8v-11.5l-10.4-19.9h4.3l7.2,14.2c0.1,0.2,0.4,0.8,0.8,1.9h0.1
		c0.2-0.5,0.4-1.1,0.9-1.9l7.6-14.2"/>
	<path class="st0" d="M371,164.7c-3.4,0-6.2,1.2-8.3,3.6c-2.1,2.4-3.2,5.5-3.2,9.4c0,3.9,1,7,3.1,9.4c2.1,2.4,4.8,3.5,8.1,3.5
		c3.5,0,6.3-1.1,8.4-3.4c2-2.2,3.1-5.4,3.1-9.4c0-4.1-1-7.4-3-9.6C377.2,165.8,374.5,164.7,371,164.7 M370.7,193.8
		c-4.6,0-8.3-1.5-11-4.4c-2.8-2.9-4.1-6.8-4.1-11.5c0-5.1,1.4-9.1,4.2-12.1c2.8-3,6.6-4.5,11.5-4.5c4.5,0,8.1,1.5,10.8,4.4
		c2.7,2.9,4.1,6.7,4.1,11.5c0,5.1-1.4,9.2-4.2,12.2C379.1,192.3,375.4,193.8,370.7,193.8"/>
	<path class="st0" d="M417.2,180.6c0,8.8-4.1,13.2-12.3,13.2c-7.8,0-11.8-4.2-11.8-12.7v-19.2h3.8v19c0,6.4,2.8,9.7,8.4,9.7
		c5.4,0,8.1-3.1,8.1-9.3v-19.3h3.8"/>
	<path class="st0" d="M430.1,165.2v11.4h5.1c0.9,0,1.8-0.1,2.6-0.4c0.8-0.3,1.5-0.7,2.1-1.2c0.6-0.5,1-1.2,1.4-1.9
		c0.3-0.8,0.5-1.6,0.5-2.5c0-1.7-0.6-3-1.7-3.9c-1.1-0.9-2.7-1.4-4.9-1.4L430.1,165.2L430.1,165.2z M449.5,193.3H445l-5.4-8.8
		c-0.5-0.8-1-1.5-1.4-2.1c-0.5-0.6-0.9-1-1.4-1.4c-0.5-0.4-1-0.6-1.6-0.8c-0.6-0.2-1.2-0.3-1.9-0.3h-3.1v13.4h-3.8v-31.4h9.6
		c1.4,0,2.7,0.2,3.9,0.5c1.2,0.3,2.2,0.9,3.1,1.6c0.9,0.7,1.6,1.6,2.1,2.6c0.5,1,0.7,2.3,0.7,3.7c0,1.1-0.2,2.1-0.5,3
		c-0.3,0.9-0.8,1.7-1.4,2.4c-0.6,0.7-1.4,1.3-2.3,1.8c-0.9,0.5-1.9,0.9-3,1.2v0.1c0.5,0.2,1,0.5,1.4,0.8c0.4,0.3,0.8,0.6,1.1,1.1
		c0.4,0.4,0.7,0.9,1.1,1.4c0.4,0.5,0.7,1.1,1.2,1.8"/>
	<path class="st0" d="M476.5,165.2v12.9h4c2.6,0,4.6-0.6,6-1.7c1.4-1.2,2.1-2.8,2.1-4.9c0-4.2-2.5-6.2-7.6-6.2L476.5,165.2
		L476.5,165.2z M476.5,181.4v11.9h-3.8v-31.4h8.9c3.5,0,6.1,0.8,8,2.4c1.9,1.6,2.9,3.9,2.9,6.9c0,3-1.1,5.4-3.2,7.3
		c-2.1,1.9-5,2.9-8.6,2.9"/>
	<path class="st0" d="M502.7,165.2v11.4h5.1c0.9,0,1.8-0.1,2.6-0.4c0.8-0.3,1.5-0.7,2.1-1.2c0.6-0.5,1-1.2,1.4-1.9
		c0.3-0.8,0.5-1.6,0.5-2.5c0-1.7-0.6-3-1.7-3.9c-1.1-0.9-2.7-1.4-4.9-1.4L502.7,165.2L502.7,165.2z M522.1,193.3h-4.5l-5.4-8.8
		c-0.5-0.8-1-1.5-1.4-2.1c-0.5-0.6-0.9-1-1.4-1.4c-0.5-0.4-1-0.6-1.6-0.8c-0.6-0.2-1.2-0.3-1.9-0.3h-3.1v13.4h-3.8v-31.4h9.7
		c1.4,0,2.7,0.2,3.9,0.5c1.2,0.3,2.2,0.9,3.1,1.6c0.9,0.7,1.6,1.6,2.1,2.6c0.5,1,0.7,2.3,0.7,3.7c0,1.1-0.2,2.1-0.5,3
		c-0.3,0.9-0.8,1.7-1.4,2.4c-0.6,0.7-1.4,1.3-2.3,1.8c-0.9,0.5-1.9,0.9-3,1.2v0.1c0.5,0.2,1,0.5,1.4,0.8c0.4,0.3,0.8,0.6,1.1,1.1
		c0.4,0.4,0.7,0.9,1.1,1.4c0.4,0.5,0.7,1.1,1.2,1.8"/>
	<path class="st0" d="M540.4,164.7c-3.4,0-6.2,1.2-8.3,3.6c-2.1,2.4-3.2,5.5-3.2,9.4c0,3.9,1,7,3.1,9.4c2.1,2.4,4.8,3.5,8.1,3.5
		c3.5,0,6.3-1.1,8.4-3.4c2-2.2,3.1-5.4,3.1-9.4c0-4.1-1-7.4-3-9.6C546.7,165.8,543.9,164.7,540.4,164.7 M540.2,193.8
		c-4.6,0-8.3-1.5-11-4.4c-2.8-2.9-4.1-6.8-4.1-11.5c0-5.1,1.4-9.1,4.2-12.1s6.6-4.5,11.5-4.5c4.5,0,8.1,1.5,10.8,4.4
		c2.7,2.9,4.1,6.7,4.1,11.5c0,5.1-1.4,9.2-4.2,12.2C548.6,192.3,544.9,193.8,540.2,193.8"/>
	<path class="st0" d="M566.9,165.2v12.9h4c2.6,0,4.6-0.6,6-1.7c1.4-1.2,2.1-2.8,2.1-4.9c0-4.2-2.5-6.2-7.6-6.2L566.9,165.2
		L566.9,165.2z M566.9,181.4v11.9h-3.8v-31.4h8.9c3.5,0,6.1,0.8,8,2.4c1.9,1.6,2.9,3.9,2.9,6.9c0,3-1.1,5.4-3.2,7.3
		c-2.1,1.9-5,2.9-8.6,2.9"/>
	<path class="st0" d="M606.4,193.3h-17.1v-31.4h16.4v3.3h-12.6v10.5h11.7v3.3h-11.7v11h13.3"/>
	<path class="st0" d="M617,165.2v11.4h5.1c0.9,0,1.8-0.1,2.6-0.4c0.8-0.3,1.5-0.7,2.1-1.2c0.6-0.5,1-1.2,1.4-1.9
		c0.3-0.8,0.5-1.6,0.5-2.5c0-1.7-0.6-3-1.7-3.9c-1.1-0.9-2.7-1.4-4.9-1.4L617,165.2L617,165.2z M636.4,193.3h-4.5l-5.4-8.8
		c-0.5-0.8-1-1.5-1.4-2.1c-0.5-0.6-0.9-1-1.4-1.4c-0.5-0.4-1-0.6-1.6-0.8c-0.6-0.2-1.2-0.3-1.9-0.3H617v13.4h-3.8v-31.4h9.7
		c1.4,0,2.7,0.2,3.9,0.5c1.2,0.3,2.2,0.9,3.1,1.6c0.9,0.7,1.6,1.6,2.1,2.6c0.5,1,0.7,2.3,0.7,3.7c0,1.1-0.2,2.1-0.5,3
		c-0.3,0.9-0.8,1.7-1.4,2.4c-0.6,0.7-1.4,1.3-2.3,1.8c-0.9,0.5-1.9,0.9-3,1.2v0.1c0.5,0.2,1,0.5,1.4,0.8c0.4,0.3,0.8,0.6,1.1,1.1
		c0.4,0.4,0.7,0.9,1.1,1.4c0.4,0.5,0.7,1.1,1.2,1.8"/>
	<path class="st0" d="M660.4,165.2h-9.3v28.1h-3.8v-28.1H638v-3.3h22.4"/>
	<path class="st0" d="M689.3,161.9l-10.7,19.8v11.6h-3.8v-11.5l-10.4-19.9h4.3l7.2,14.2c0.1,0.2,0.4,0.8,0.8,1.9h0.1
		c0.2-0.5,0.4-1.1,0.9-1.9l7.6-14.2"/>
	<path class="st0" d="M695,188.3l-3.6,10.8h-2.6l2.6-10.8"/>
	<path class="st0" d="M734.2,164.7c-3.4,0-6.2,1.2-8.3,3.6c-2.1,2.4-3.2,5.5-3.2,9.4c0,3.9,1,7,3.1,9.4c2.1,2.4,4.8,3.5,8.1,3.5
		c3.5,0,6.3-1.1,8.4-3.4c2-2.2,3.1-5.4,3.1-9.4c0-4.1-1-7.4-3-9.6C740.4,165.8,737.7,164.7,734.2,164.7 M733.9,193.8
		c-4.6,0-8.3-1.5-11-4.4c-2.8-2.9-4.1-6.8-4.1-11.5c0-5.1,1.4-9.1,4.2-12.1c2.8-3,6.6-4.5,11.5-4.5c4.5,0,8.1,1.5,10.8,4.4
		c2.7,2.9,4.1,6.7,4.1,11.5c0,5.1-1.4,9.2-4.2,12.2C742.4,192.3,738.6,193.8,733.9,193.8"/>
	<path class="st0" d="M780.5,180.6c0,8.8-4.1,13.2-12.3,13.2c-7.8,0-11.8-4.2-11.8-12.7v-19.2h3.8v19c0,6.4,2.8,9.7,8.4,9.7
		c5.4,0,8.1-3.1,8.1-9.3v-19.3h3.8"/>
	<path class="st0" d="M793.3,165.2v11.4h5.1c0.9,0,1.8-0.1,2.6-0.4c0.8-0.3,1.5-0.7,2.1-1.2c0.6-0.5,1-1.2,1.4-1.9
		c0.3-0.8,0.5-1.6,0.5-2.5c0-1.7-0.6-3-1.7-3.9c-1.1-0.9-2.7-1.4-4.9-1.4L793.3,165.2L793.3,165.2z M812.7,193.3h-4.5l-5.4-8.8
		c-0.5-0.8-1-1.5-1.4-2.1c-0.5-0.6-0.9-1-1.4-1.4c-0.5-0.4-1-0.6-1.6-0.8c-0.6-0.2-1.2-0.3-1.9-0.3h-3.1v13.4h-3.8v-31.4h9.7
		c1.4,0,2.7,0.2,3.9,0.5c1.2,0.3,2.2,0.9,3.1,1.6c0.9,0.7,1.6,1.6,2.1,2.6c0.5,1,0.7,2.3,0.7,3.7c0,1.1-0.2,2.1-0.5,3
		c-0.3,0.9-0.8,1.7-1.4,2.4c-0.6,0.7-1.4,1.3-2.3,1.8c-0.9,0.5-1.9,0.9-3,1.2v0.1c0.5,0.2,1,0.5,1.4,0.8c0.4,0.3,0.8,0.6,1.1,1.1
		c0.4,0.4,0.7,0.9,1.1,1.4c0.4,0.5,0.7,1.1,1.2,1.8"/>
	<path class="st0" d="M839.7,165.2v12.9h4c2.6,0,4.6-0.6,6-1.7c1.4-1.2,2.1-2.8,2.1-4.9c0-4.2-2.5-6.2-7.6-6.2L839.7,165.2
		L839.7,165.2z M839.7,181.4v11.9h-3.8v-31.4h8.9c3.5,0,6.1,0.8,8,2.4c1.9,1.6,2.9,3.9,2.9,6.9c0,3-1.1,5.4-3.2,7.3
		c-2.1,1.9-5,2.9-8.6,2.9"/>
	<path class="st0" d="M865.9,165.2v11.4h5.1c0.9,0,1.8-0.1,2.6-0.4c0.8-0.3,1.5-0.7,2.1-1.2c0.6-0.5,1-1.2,1.4-1.9
		c0.3-0.8,0.5-1.6,0.5-2.5c0-1.7-0.6-3-1.7-3.9c-1.1-0.9-2.7-1.4-4.9-1.4L865.9,165.2L865.9,165.2z M885.3,193.3h-4.5l-5.4-8.8
		c-0.5-0.8-1-1.5-1.4-2.1c-0.5-0.6-0.9-1-1.4-1.4c-0.5-0.4-1-0.6-1.6-0.8c-0.6-0.2-1.2-0.3-1.9-0.3h-3.1v13.4h-3.8v-31.4h9.7
		c1.4,0,2.7,0.2,3.9,0.5c1.2,0.3,2.2,0.9,3.1,1.6c0.9,0.7,1.6,1.6,2.1,2.6c0.5,1,0.7,2.3,0.7,3.7c0,1.1-0.2,2.1-0.5,3
		c-0.3,0.9-0.8,1.7-1.4,2.4c-0.6,0.7-1.4,1.3-2.3,1.8c-0.9,0.5-1.9,0.9-3,1.2v0.1c0.5,0.2,1,0.5,1.4,0.8c0.4,0.3,0.8,0.6,1.1,1.1
		c0.4,0.4,0.7,0.9,1.1,1.4c0.4,0.5,0.7,1.1,1.2,1.8"/>
	<path class="st0" d="M903.7,164.7c-3.4,0-6.2,1.2-8.3,3.6c-2.1,2.4-3.2,5.5-3.2,9.4c0,3.9,1,7,3.1,9.4c2.1,2.4,4.8,3.5,8.1,3.5
		c3.5,0,6.3-1.1,8.4-3.4c2-2.2,3.1-5.4,3.1-9.4c0-4.1-1-7.4-3-9.6C909.9,165.8,907.2,164.7,903.7,164.7 M903.4,193.8
		c-4.6,0-8.3-1.5-11-4.4c-2.8-2.9-4.1-6.8-4.1-11.5c0-5.1,1.4-9.1,4.2-12.1c2.8-3,6.6-4.5,11.5-4.5c4.5,0,8.1,1.5,10.8,4.4
		c2.7,2.9,4.1,6.7,4.1,11.5c0,5.1-1.4,9.2-4.2,12.2C911.8,192.3,908.1,193.8,903.4,193.8"/>
	<path class="st0" d="M942.7,165.2h-12.6v10.9h11.7v3.3h-11.7v13.9h-3.8v-31.4h16.4"/>
	<path class="st0" d="M966.4,193.3h-17.1v-31.4h16.4v3.3H953v10.5h11.7v3.3H953v11h13.4"/>
	<path class="st0" d="M972.1,192v-4.3c0.5,0.4,1.1,0.8,1.8,1.2c0.7,0.4,1.5,0.6,2.3,0.9c0.8,0.2,1.6,0.4,2.4,0.6
		c0.8,0.1,1.5,0.2,2.2,0.2c2.3,0,4.1-0.4,5.2-1.3c1.2-0.8,1.7-2,1.7-3.6c0-0.8-0.2-1.6-0.6-2.2c-0.4-0.6-0.9-1.2-1.6-1.7
		c-0.7-0.5-1.5-1-2.4-1.5c-0.9-0.5-1.9-1-3-1.5c-1.1-0.6-2.2-1.1-3.2-1.7c-1-0.6-1.8-1.2-2.5-1.9c-0.7-0.7-1.3-1.5-1.7-2.3
		c-0.4-0.9-0.6-1.9-0.6-3.1c0-1.4,0.3-2.7,1-3.7c0.6-1.1,1.5-1.9,2.5-2.6c1.1-0.7,2.3-1.2,3.6-1.5c1.3-0.3,2.7-0.5,4.1-0.5
		c3.2,0,5.5,0.4,7,1.1v4.1c-1.9-1.3-4.4-1.9-7.4-1.9c-0.8,0-1.7,0.1-2.5,0.3c-0.8,0.2-1.6,0.4-2.2,0.8c-0.6,0.4-1.2,0.9-1.6,1.5
		c-0.4,0.6-0.6,1.3-0.6,2.2c0,0.8,0.2,1.5,0.5,2.1c0.3,0.6,0.8,1.1,1.4,1.6c0.6,0.5,1.3,0.9,2.2,1.4c0.9,0.4,1.9,0.9,3,1.5
		c1.2,0.5,2.2,1.1,3.3,1.8c1,0.6,1.9,1.3,2.7,2c0.8,0.7,1.4,1.6,1.9,2.5c0.5,0.9,0.7,1.9,0.7,3.1c0,1.6-0.3,2.9-0.9,3.9
		c-0.6,1.1-1.5,1.9-2.5,2.6c-1.1,0.7-2.3,1.2-3.7,1.5c-1.4,0.3-2.8,0.5-4.4,0.5c-0.5,0-1.1,0-1.9-0.1c-0.8-0.1-1.5-0.2-2.3-0.4
		c-0.8-0.1-1.5-0.3-2.2-0.6C973.1,192.6,972.5,192.3,972.1,192"/>
	<path class="st0" d="M997.5,192v-4.3c0.5,0.4,1.1,0.8,1.8,1.2c0.7,0.4,1.5,0.6,2.3,0.9c0.8,0.2,1.6,0.4,2.4,0.6
		c0.8,0.1,1.5,0.2,2.2,0.2c2.3,0,4.1-0.4,5.2-1.3c1.2-0.8,1.7-2,1.7-3.6c0-0.8-0.2-1.6-0.6-2.2c-0.4-0.6-0.9-1.2-1.6-1.7
		c-0.7-0.5-1.5-1-2.4-1.5c-0.9-0.5-1.9-1-3-1.5c-1.1-0.6-2.2-1.1-3.2-1.7c-1-0.6-1.8-1.2-2.5-1.9c-0.7-0.7-1.3-1.5-1.7-2.3
		c-0.4-0.9-0.6-1.9-0.6-3.1c0-1.4,0.3-2.7,1-3.7c0.6-1.1,1.5-1.9,2.5-2.6c1.1-0.7,2.3-1.2,3.6-1.5c1.3-0.3,2.7-0.5,4.1-0.5
		c3.2,0,5.5,0.4,7,1.1v4.1c-1.9-1.3-4.4-1.9-7.4-1.9c-0.8,0-1.7,0.1-2.5,0.3c-0.8,0.2-1.6,0.4-2.2,0.8c-0.6,0.4-1.2,0.9-1.6,1.5
		c-0.4,0.6-0.6,1.3-0.6,2.2c0,0.8,0.2,1.5,0.5,2.1c0.3,0.6,0.8,1.1,1.4,1.6c0.6,0.5,1.3,0.9,2.2,1.4c0.9,0.4,1.9,0.9,3,1.5
		c1.2,0.5,2.2,1.1,3.3,1.8c1,0.6,1.9,1.3,2.7,2c0.8,0.7,1.4,1.6,1.9,2.5c0.5,0.9,0.7,1.9,0.7,3.1c0,1.6-0.3,2.9-0.9,3.9
		c-0.6,1.1-1.5,1.9-2.5,2.6c-1.1,0.7-2.3,1.2-3.7,1.5c-1.4,0.3-2.8,0.5-4.4,0.5c-0.5,0-1.1,0-1.9-0.1c-0.8-0.1-1.5-0.2-2.3-0.4
		c-0.8-0.1-1.5-0.3-2.2-0.6C998.5,192.6,997.9,192.3,997.5,192"/>
	<path class="st0" d="M1031.8,161.9v3.2h-3.2v25.1h3.2v3.2h-10.1v-3.2h3.2V165h-3.2v-3.2"/>
	<path class="st0" d="M1051.8,164.7c-3.4,0-6.2,1.2-8.3,3.6c-2.1,2.4-3.2,5.5-3.2,9.4c0,3.9,1,7,3.1,9.4c2.1,2.4,4.8,3.5,8.1,3.5
		c3.5,0,6.3-1.1,8.4-3.4c2-2.2,3.1-5.4,3.1-9.4c0-4.1-1-7.4-3-9.6C1058,165.8,1055.2,164.7,1051.8,164.7 M1051.5,193.8
		c-4.6,0-8.3-1.5-11-4.4c-2.8-2.9-4.1-6.8-4.1-11.5c0-5.1,1.4-9.1,4.2-12.1c2.8-3,6.6-4.5,11.5-4.5c4.5,0,8.1,1.5,10.8,4.4
		c2.7,2.9,4.1,6.7,4.1,11.5c0,5.1-1.4,9.2-4.2,12.2C1059.9,192.3,1056.2,193.8,1051.5,193.8"/>
	<path class="st0" d="M1100.4,193.3h-4.6l-16.6-25.1c-0.4-0.6-0.8-1.3-1-2h-0.1c0.1,0.7,0.2,2.1,0.2,4.3v22.7h-3.8v-31.4h4.9
		l16.2,24.7c0.7,1,1.1,1.7,1.3,2.1h0.1c-0.2-0.9-0.2-2.4-0.2-4.6v-22.2h3.8"/>
</g>
</svg>
